<svg xmlns="http://www.w3.org/2000/svg" width="18.374" height="20.999" viewBox="0 0 18.374 20.999">
    <defs>
        <style>.a{fill:#24415c;}</style>
    </defs>
    <path class="a"
          d="M9.182,19.687A1.314,1.314,0,0,1,7.87,18.373H6.558a2.625,2.625,0,1,0,5.25,0H10.495A1.314,1.314,0,0,1,9.182,19.687Zm8.587-5.955c-1.147-1.092-2.024-2.234-2.024-6.107A6.4,6.4,0,0,0,9.839,1.376V.656a.656.656,0,0,0-1.312,0v.72A6.4,6.4,0,0,0,2.619,7.624c0,3.873-.877,5.016-2.024,6.107a1.909,1.909,0,0,0-.461,2.1,1.957,1.957,0,0,0,1.831,1.229H16.4a1.957,1.957,0,0,0,1.831-1.229A1.908,1.908,0,0,0,17.77,13.732ZM16.4,15.749H1.964A.623.623,0,0,1,1.5,14.683C2.93,13.321,3.931,11.8,3.931,7.625a5.128,5.128,0,0,1,5.251-5,5.127,5.127,0,0,1,5.251,5c0,4.157.993,5.689,2.431,7.058A.623.623,0,0,1,16.4,15.749Z"
          transform="translate(0.005)"/>
</svg>