<svg xmlns="http://www.w3.org/2000/svg" width="19.281" height="20.13" viewBox="0 0 19.281 20.13">
    <defs>
        <style>.a{fill:#24415c;}</style>
    </defs>
    <path class="a"
          d="M16.871,0H2.41A2.467,2.467,0,0,0,0,2.516V13.839a2.467,2.467,0,0,0,2.41,2.516H6.025v3.3a.461.461,0,0,0,.452.472.421.421,0,0,0,.267-.094l4.7-3.68h5.423a2.467,2.467,0,0,0,2.41-2.516V2.516A2.467,2.467,0,0,0,16.871,0Zm1.205,13.839A1.236,1.236,0,0,1,16.871,15.1H11.045l-.32.252L7.23,18.085V15.1H2.41a1.236,1.236,0,0,1-1.205-1.258V2.516A1.236,1.236,0,0,1,2.41,1.258H16.871a1.236,1.236,0,0,1,1.205,1.258Zm-7.532-4.4H5.122a.309.309,0,0,0-.3.315v.629a.309.309,0,0,0,.3.315h5.423a.309.309,0,0,0,.3-.315V9.75A.309.309,0,0,0,10.544,9.436ZM14.16,5.662H5.122a.309.309,0,0,0-.3.315v.629a.309.309,0,0,0,.3.315H14.16a.309.309,0,0,0,.3-.315V5.976A.309.309,0,0,0,14.16,5.662Z"/>
</svg>