<svg xmlns="http://www.w3.org/2000/svg" width="33.513" height="29.789" viewBox="0 0 33.513 29.789">
    <defs>
        <style>.a{fill:#2c3e50;}</style>
    </defs>
    <path class="a"
          d="M65.376,28.337,60.2,23.166a7.517,7.517,0,1,0-1.314,1.314l5.172,5.172a.465.465,0,0,0,.659,0l.658-.658A.465.465,0,0,0,65.376,28.337ZM54.345,24.2a5.585,5.585,0,1,1,5.585-5.585A5.585,5.585,0,0,1,54.345,24.2Zm-2.8,3.724H34.793A.931.931,0,0,1,33.862,27V2.8a.931.931,0,0,1,.931-.931h10.24V7.918a1.392,1.392,0,0,0,1.4,1.4l7.913-.005V7.68a2.806,2.806,0,0,0-.82-1.978L48.64.82A2.793,2.793,0,0,0,46.666,0H34.793A2.8,2.8,0,0,0,32,2.8V27a2.793,2.793,0,0,0,2.793,2.793H51.549a2.785,2.785,0,0,0,2.627-1.879,9.3,9.3,0,0,1-1.974-.254A.926.926,0,0,1,51.549,27.927ZM46.895,1.9a.915.915,0,0,1,.431.244l4.881,4.881a.916.916,0,0,1,.244.43H46.895Z"
          transform="translate(-32)"/>
</svg>