<svg xmlns="http://www.w3.org/2000/svg" width="29.302" height="29.303" viewBox="0 0 29.302 29.303">
    <defs>
        <style>.a{fill:#2c3e50;}</style>
    </defs>
    <path class="a"
          d="M28.5,5.608,23.7.807A2.746,2.746,0,0,0,21.763,0H10.081A2.756,2.756,0,0,0,7.334,2.752V9.483A5.544,5.544,0,0,1,5.953,9.2a1.083,1.083,0,0,0-.284-.038,1.107,1.107,0,0,0-.782.331,3.492,3.492,0,0,1-2.387,1.4,1.128,1.128,0,0,0-.789.805A3.569,3.569,0,0,1,.338,14.119a1.17,1.17,0,0,0-.291,1.112,3.608,3.608,0,0,1,0,2.791,1.171,1.171,0,0,0,.291,1.113,3.563,3.563,0,0,1,1.375,2.42,1.13,1.13,0,0,0,.789.807l.255.069v5.956a.916.916,0,0,0,1.325.819l3.253-1.627,3.253,1.627a.923.923,0,0,0,.41.1H26.564a2.748,2.748,0,0,0,2.747-2.747v-19A2.76,2.76,0,0,0,28.5,5.608ZM21.987,1.865a.9.9,0,0,1,.424.24l4.8,4.8a.9.9,0,0,1,.24.424H21.987ZM1.913,18.124a4.719,4.719,0,0,0,0-3A4.684,4.684,0,0,0,3.38,12.547a4.515,4.515,0,0,0,2.511-1.47,5.3,5.3,0,0,0,1.443.238,5.267,5.267,0,0,0,1.442-.238,4.576,4.576,0,0,0,2.51,1.47,4.63,4.63,0,0,0,1.468,2.579,4.667,4.667,0,0,0,0,3A4.683,4.683,0,0,0,11.288,20.7a4.383,4.383,0,0,0-2.132,1.108,4.407,4.407,0,0,0-3.646,0A4.441,4.441,0,0,0,3.38,20.7a4.631,4.631,0,0,0-1.467-2.575Zm5.831,7.612a.916.916,0,0,0-.819,0L4.588,26.905V23.459l.018.017a1.083,1.083,0,0,0,1.362.161,2.57,2.57,0,0,1,2.732,0,1.078,1.078,0,0,0,.582.172,1.1,1.1,0,0,0,.78-.331c.007-.007.012-.01.019-.018v3.447L7.744,25.737Zm19.736.82a.918.918,0,0,1-.916.916H11.913V22.429l.254-.068a1.128,1.128,0,0,0,.788-.806,3.566,3.566,0,0,1,1.375-2.422,1.169,1.169,0,0,0,.29-1.113,3.608,3.608,0,0,1,0-2.791,1.17,1.17,0,0,0-.29-1.113,3.566,3.566,0,0,1-1.375-2.42,1.129,1.129,0,0,0-.787-.806,3.49,3.49,0,0,1-2.388-1.4,1.093,1.093,0,0,0-.615-.3V2.752a.923.923,0,0,1,.916-.921H20.156V7.788a1.367,1.367,0,0,0,1.374,1.37H27.48v17.4Z"
          transform="translate(-0.008)"/>
</svg>