<svg xmlns="http://www.w3.org/2000/svg" width="21.967" height="19.222" viewBox="0 0 21.967 19.222">
    <defs>
        <style>.a{fill:#0077b7;}</style>
    </defs>
    <path class="a"
          d="M53.892,40.491,43.9,32.338a1.38,1.38,0,0,0-1.733,0L32.18,40.491a.343.343,0,0,0-.05.482l.433.533a.343.343,0,0,0,.481.051L34.8,40.125V50.552a.687.687,0,0,0,.687.687h5.492a.687.687,0,0,0,.687-.687V45.059l2.746.013v5.5a.687.687,0,0,0,.687.687l5.492-.014a.687.687,0,0,0,.687-.687V40.125l1.753,1.432a.343.343,0,0,0,.483-.05l.433-.533a.343.343,0,0,0-.052-.484Zm-4,9.38h0l-4.119.013v-5.5A.689.689,0,0,0,45.1,43.7l-4.119-.012a.687.687,0,0,0-.689.687v5.5H36.171V39l6.866-5.6L49.9,39Z"
          transform="translate(-32.054 -32.033)"/>
</svg>