<svg xmlns="http://www.w3.org/2000/svg" width="19.277" height="23" viewBox="0 0 19.277 23">
    <defs>
        <style>.a{fill:#24415c;}</style>
    </defs>
    <path class="a"
          d="M9.638,18.866a.883.883,0,0,1-.861-.9V15.093a.861.861,0,1,1,1.721,0v2.875A.883.883,0,0,1,9.638,18.866Zm9.638-6.648v8.625A2.113,2.113,0,0,1,17.211,23H2.065A2.113,2.113,0,0,1,0,20.843V12.218a2.113,2.113,0,0,1,2.065-2.156h.688V7.187A7.045,7.045,0,0,1,9.66,0a7.09,7.09,0,0,1,6.863,7.255v2.808h.688A2.113,2.113,0,0,1,19.277,12.218ZM4.131,10.062H15.146V7.187a5.638,5.638,0,0,0-5.508-5.75,5.638,5.638,0,0,0-5.508,5.75ZM17.9,20.843V12.218a.706.706,0,0,0-.688-.719H2.065a.706.706,0,0,0-.688.719v8.625a.706.706,0,0,0,.688.719H17.211A.706.706,0,0,0,17.9,20.843Z"
          transform="translate(0 0.001)"/>
</svg>