<svg xmlns="http://www.w3.org/2000/svg" width="19.277" height="15.094" viewBox="0 0 19.277 15.094">
    <defs>
        <style>.a{fill:#24415c;}</style>
    </defs>
    <path class="a"
          d="M6.024,70.018a.618.618,0,0,1,.6-.629h5.422V65.7a.3.3,0,0,1,.512-.224L17.891,71.1a.648.648,0,0,1,0,.892L12.56,77.616a.3.3,0,0,1-.512-.224V73.7H6.626a.618.618,0,0,1-.6-.629V70.018m-1.2,0v3.054a1.849,1.849,0,0,0,1.807,1.887h4.217v2.433A1.5,1.5,0,0,0,13.411,78.5l5.335-5.621a1.948,1.948,0,0,0,0-2.673l-5.335-5.625A1.5,1.5,0,0,0,10.843,65.7v2.433H6.626A1.851,1.851,0,0,0,4.819,70.018ZM0,65.887v11.32a1.849,1.849,0,0,0,1.807,1.887h4.97a.463.463,0,0,0,.452-.472v-.314a.463.463,0,0,0-.452-.472H1.807a.618.618,0,0,1-.6-.629V65.887a.618.618,0,0,1,.6-.629h4.97a.463.463,0,0,0,.452-.472v-.314A.463.463,0,0,0,6.777,64H1.807A1.849,1.849,0,0,0,0,65.887Z"
          transform="translate(0 -64)"/>
</svg>