<svg xmlns="http://www.w3.org/2000/svg" width="19.276" height="22.03" viewBox="0 0 19.276 22.03">
    <defs>
        <style>.a{fill:#24415c;}</style>
    </defs>
    <path class="a"
          d="M13.494,12.392c-1.235,0-1.829.688-3.855.688s-2.616-.688-3.855-.688A5.784,5.784,0,0,0,0,18.175v1.79A2.066,2.066,0,0,0,2.065,22.03H17.211a2.066,2.066,0,0,0,2.065-2.065v-1.79A5.784,5.784,0,0,0,13.494,12.392ZM17.9,19.965a.69.69,0,0,1-.688.688H2.065a.69.69,0,0,1-.688-.688v-1.79a4.409,4.409,0,0,1,4.406-4.406c.843,0,1.682.688,3.855.688s3.012-.688,3.855-.688A4.409,4.409,0,0,1,17.9,18.175Zm-8.261-8.95A5.508,5.508,0,1,0,4.131,5.508,5.507,5.507,0,0,0,9.638,11.015Zm0-9.638A4.131,4.131,0,1,1,5.508,5.508,4.137,4.137,0,0,1,9.638,1.377Z"/>
</svg>